<svg version="1.1" id="Layer_1" xmlns="http://www.w3.org/2000/svg" xmlns:xlink="http://www.w3.org/1999/xlink" x="0px" y="0px"
	 width="100%" viewBox="0 0 286 274" enable-background="new 0 0 286 274" xml:space="preserve">
<path fill="#1A748E" opacity="1.000000" stroke="none" 
	d="
M151.000000,275.000000 
	C146.975449,275.000000 142.950912,275.000000 138.460129,274.616394 
	C131.128479,270.727844 122.990822,268.573395 117.604073,263.498840 
	C82.561745,230.487152 47.984104,196.977081 13.555491,163.322113 
	C2.859448,152.866425 0.357281,139.841629 5.399278,125.402161 
	C8.730528,120.923569 11.152539,116.019493 14.825088,112.375870 
	C30.952705,96.375267 47.512589,80.811432 63.760017,64.929932 
	C69.161751,59.649857 74.098000,53.893559 79.536354,48.181305 
	C91.455193,36.801113 102.804337,25.280413 114.844986,14.534537 
	C120.046234,9.892595 126.687584,6.869253 132.645157,3.064315 
	C133.514832,2.508875 134.219162,1.694539 135.000000,1.000000 
	C139.689255,1.000000 144.378510,1.000000 149.692429,1.345916 
	C158.638321,3.377030 166.020706,6.828514 172.204559,12.806562 
	C204.251984,43.787491 236.306686,74.761162 268.458435,105.633652 
	C274.735931,111.661362 280.724243,117.791374 283.998810,126.436768 
	C285.867462,134.235901 286.201477,141.597458 283.451416,149.088104 
	C278.722687,155.342834 274.645416,161.752823 269.742188,167.452194 
	C265.554077,172.320358 260.372101,176.325211 255.712173,180.797852 
	C249.862442,186.412521 244.094971,192.112946 238.295212,197.779617 
	C229.044830,206.817749 219.778214,215.839508 210.582657,224.933060 
	C209.813950,225.693283 209.530945,226.944656 208.676849,227.980225 
	C201.602585,234.413635 194.810806,240.770248 188.159058,247.270142 
	C177.001328,258.173157 166.435440,269.840393 151.000000,275.000000 
M167.451004,104.082275 
	C167.244492,104.368736 167.037979,104.655197 166.264648,105.122032 
	C165.514526,105.762878 164.764404,106.403725 163.454834,107.085350 
	C163.217667,107.359131 162.980499,107.632912 162.332458,107.948967 
	C162.332458,107.948967 162.002884,108.197937 161.571045,108.098236 
	C161.571045,108.098236 161.129837,108.059105 160.347946,108.030060 
	C158.901108,108.694725 157.454269,109.359383 155.871796,110.349045 
	C155.871796,110.349045 155.829361,110.698639 155.202988,110.701988 
	C154.788589,110.716156 154.374191,110.730331 153.240692,110.403183 
	C148.092972,109.966331 142.945236,109.529472 137.369202,109.119110 
	C137.369202,109.119110 136.993683,108.911400 136.521545,108.555046 
	C135.954941,108.417610 135.388336,108.280182 134.865738,108.113754 
	C134.865738,108.113754 134.836349,108.162003 134.646942,107.482109 
	C128.338699,104.728729 122.030449,101.975342 115.849243,99.184853 
	C115.849243,99.184853 115.877899,99.314064 115.503815,98.815331 
	C114.939400,98.593124 114.374992,98.370918 113.913017,98.121696 
	C113.913017,98.121696 113.934669,98.225410 113.525276,97.748489 
	C112.952797,97.524139 112.380325,97.299789 111.123482,96.953911 
	C104.123245,93.600273 97.313370,89.738525 90.072960,87.025970 
	C81.662506,83.875038 72.824356,83.852448 63.432320,86.414368 
	C59.974957,89.614952 56.517593,92.815536 52.456291,96.323990 
	C46.294685,102.279327 40.111252,108.212273 33.975849,114.194481 
	C19.586872,128.224182 19.597071,147.441055 34.063618,161.412308 
	C62.590633,188.962631 91.146317,216.483322 119.715332,243.990112 
	C134.146469,257.884644 154.142670,257.996979 168.536926,244.158569 
	C197.246368,216.557739 225.912811,188.911942 254.528625,161.214066 
	C268.977997,147.228195 268.871979,128.095352 254.344757,114.015167 
	C236.157150,96.387253 217.901962,78.829033 199.666580,61.250431 
	C198.886902,60.498829 198.013245,59.844727 196.185379,58.303989 
	C192.189072,67.517899 188.511368,75.997185 184.341736,84.844765 
	C184.238159,85.232964 184.134583,85.621155 183.599701,86.342880 
	C183.373291,86.826530 183.146881,87.310181 182.441315,88.043083 
	C182.302734,88.365143 182.164139,88.687195 181.995880,89.000198 
	C181.995880,89.000198 182.013687,89.026047 181.385208,89.177185 
	C180.889771,89.772537 180.394333,90.367897 179.349304,91.191093 
	C178.907974,91.816154 178.466629,92.441223 177.401154,93.260582 
	C176.608673,93.844963 175.816208,94.429352 174.994492,95.007156 
	C174.994492,95.007156 175.016998,95.029861 174.255692,95.138611 
	C172.902206,95.400337 171.548721,95.662071 169.568420,96.045006 
	C170.173828,94.362991 170.583984,93.223419 171.487106,91.771576 
	C171.996902,91.193741 172.506699,90.615898 173.558502,89.919884 
	C173.758133,89.618164 173.957779,89.316437 174.473129,88.670464 
	C174.685165,88.436745 174.845428,88.171715 175.119171,87.423737 
	C175.314255,87.131889 175.587311,86.985527 176.369232,86.710266 
	C176.561539,86.433372 176.753830,86.156487 177.096664,85.207832 
	C178.341873,82.466095 179.587067,79.724350 181.201584,76.353241 
	C184.661316,68.950905 188.121033,61.548565 190.808640,55.798260 
	C183.369705,47.602676 176.140427,38.833797 168.069794,30.923288 
	C153.726929,16.864952 132.583344,17.848961 118.231094,32.921013 
	C116.551239,34.635548 114.871384,36.350079 112.613235,38.364944 
	C111.418282,39.608074 110.223320,40.851204 108.553139,42.209240 
	C108.251114,42.394657 108.086029,42.664001 107.572411,43.185181 
	C107.383324,43.460392 107.194229,43.735607 106.508415,44.145950 
	C106.338547,44.430126 106.168678,44.714302 106.000000,45.000000 
	C106.000000,45.000000 105.998505,44.998825 105.507248,45.145138 
	C105.337006,45.429382 105.166771,45.713623 105.000000,46.000000 
	C105.000000,46.000000 104.997856,45.996639 104.497627,46.131481 
	C104.317039,46.414753 104.136444,46.698025 103.998383,47.004471 
	C103.998383,47.004471 103.981430,46.959137 103.466782,47.091660 
	C103.287483,47.384766 103.108185,47.677876 102.989067,47.990643 
	C102.989067,47.990643 102.969429,47.930454 102.461273,48.087456 
	C102.283600,48.382183 102.105927,48.676910 101.988281,48.996170 
	C101.988281,48.996170 101.958450,48.938591 101.344368,49.174763 
	C99.835533,50.758198 98.326691,52.341633 96.228508,54.194191 
	C94.445229,56.026077 92.661942,57.857964 90.308678,59.916317 
	C90.065125,60.235325 89.821571,60.554333 89.009415,61.140373 
	C87.355209,62.824104 85.701012,64.507835 83.603752,66.286156 
	C83.320068,66.456612 83.170525,66.707138 82.592247,67.266113 
	C82.073219,67.873802 81.554184,68.481499 80.483719,69.255524 
	C79.832451,69.951530 79.181190,70.647537 78.354576,71.356743 
	C78.354576,71.356743 78.334145,71.531403 77.800774,71.877388 
	C76.204712,73.314507 74.608650,74.751633 73.012589,76.188751 
	C73.259697,76.511047 73.506805,76.833336 73.753914,77.155624 
	C75.507698,76.451576 77.261475,75.747528 79.688263,75.094955 
	C80.126198,74.996513 80.564140,74.898064 81.660759,74.914078 
	C82.091629,74.819862 82.522499,74.725639 83.814789,74.720131 
	C85.544952,74.728928 87.275124,74.737724 89.483803,74.925453 
	C89.651367,74.895103 89.818939,74.864754 90.639778,75.024010 
	C91.090889,75.024635 91.542007,75.025261 92.508965,75.408882 
	C93.335907,75.561554 94.162849,75.714226 95.411240,76.111267 
	C95.411240,76.111267 95.881050,76.240143 95.881050,76.240143 
	C95.881050,76.240143 96.366501,76.199226 96.775665,76.669792 
	C97.178261,76.729202 97.580849,76.788612 98.394867,77.064629 
	C98.394867,77.064629 98.859825,77.062744 99.249161,77.528748 
	C99.826942,77.665977 100.404732,77.803200 101.525299,78.383362 
	C104.277542,79.620163 107.029778,80.856956 110.045158,82.526321 
	C110.358757,82.618843 110.672348,82.711365 111.284416,83.070320 
	C111.284416,83.070320 111.682968,83.105400 111.865944,83.681580 
	C112.255699,84.049515 112.645447,84.417458 113.485550,84.966957 
	C113.485550,84.966957 113.962273,85.059265 114.263260,85.669731 
	C115.516899,86.019386 116.770538,86.369041 118.388786,87.000565 
	C118.388786,87.000565 118.844803,87.067131 119.246262,87.648361 
	C126.391884,91.131516 133.432648,94.854408 140.709579,98.037315 
	C149.873566,102.045616 159.319412,103.803978 169.068481,99.726387 
	C169.459015,99.563042 170.326218,100.539345 171.002762,101.001465 
	C171.002762,101.001465 170.987045,100.969368 170.487289,101.119026 
	C170.318069,101.409897 170.148849,101.700760 170.001907,102.001587 
	C170.001907,102.001587 169.990814,101.979752 169.496368,102.132294 
	C169.323257,102.418228 169.150146,102.704163 169.001831,103.002220 
	C169.001831,103.002220 168.989517,102.977615 168.489578,103.125534 
	C168.304825,103.408058 168.120071,103.690582 167.991379,103.996849 
	C167.991379,103.996849 167.973785,103.938545 167.451004,104.082275 
z"/>
<path fill="#F6F7F7" opacity="1.000000" stroke="none" 
	d="
M5.065619,125.556816 
	C0.357281,139.841629 2.859448,152.866425 13.555491,163.322113 
	C47.984104,196.977081 82.561745,230.487152 117.604073,263.498840 
	C122.990822,268.573395 131.128479,270.727844 137.996948,274.616394 
	C92.400917,275.000000 46.801834,275.000000 1.000000,275.000000 
	C1.000000,222.312607 1.000000,169.624969 1.383606,116.543365 
	C2.866680,119.285217 3.966149,122.421013 5.065619,125.556816 
z"/>
<path fill="#F6F7F7" opacity="1.000000" stroke="none" 
	d="
M284.063995,126.012878 
	C280.724243,117.791374 274.735931,111.661362 268.458435,105.633652 
	C236.306686,74.761162 204.251984,43.787491 172.204559,12.806562 
	C166.020706,6.828514 158.638321,3.377030 150.158539,1.345916 
	C195.592010,1.000000 241.184021,1.000000 287.000000,1.000000 
	C287.000000,44.353970 287.000000,87.708328 286.794006,131.235641 
	C285.746674,129.610031 284.905334,127.811455 284.063995,126.012878 
z"/>
<path fill="#F5F7F7" opacity="1.000000" stroke="none" 
	d="
M151.468658,275.000000 
	C166.435440,269.840393 177.001328,258.173157 188.159058,247.270142 
	C194.810806,240.770248 201.602585,234.413635 208.680542,228.450409 
	C209.029663,238.461426 209.029663,248.014648 209.029663,258.498932 
	C211.080048,256.621246 212.305618,255.547318 213.477921,254.418076 
	C229.913712,238.585602 246.180573,222.573105 262.830322,206.969086 
	C273.623840,196.853439 283.943176,186.645874 286.558258,171.201004 
	C286.573395,171.111618 286.847046,171.066040 287.000000,171.000000 
	C287.000000,205.603363 287.000000,240.206726 287.000000,275.000000 
	C241.979279,275.000000 196.958298,275.000000 151.468658,275.000000 
z"/>
<path fill="#F7F6F6" opacity="1.000000" stroke="none" 
	d="
M134.531342,1.000000 
	C134.219162,1.694539 133.514832,2.508875 132.645157,3.064315 
	C126.687584,6.869253 120.046234,9.892595 114.844986,14.534537 
	C102.804337,25.280413 91.455193,36.801113 79.410248,47.698708 
	C78.994827,37.562099 78.994827,27.734411 78.994827,16.711740 
	C58.471333,36.487606 39.106731,55.274426 19.582256,73.893593 
	C12.353106,80.787544 6.145995,88.193810 3.479946,98.090378 
	C3.096695,99.513031 1.848119,100.702576 1.000001,102.000000 
	C1.000000,68.396111 1.000000,34.792225 1.000000,1.000000 
	C45.354050,1.000000 89.708366,1.000000 134.531342,1.000000 
z"/>
<path fill="#D21A4C" opacity="1.000000" stroke="none" 
	d="
M1.000001,102.464645 
	C1.848119,100.702576 3.096695,99.513031 3.479946,98.090378 
	C6.145995,88.193810 12.353106,80.787544 19.582256,73.893593 
	C39.106731,55.274426 58.471333,36.487606 78.994827,16.711740 
	C78.994827,27.734411 78.994827,37.562099 79.120941,47.872383 
	C74.098000,53.893559 69.161751,59.649857 63.760017,64.929932 
	C47.512589,80.811432 30.952705,96.375267 14.825088,112.375870 
	C11.152539,116.019493 8.730528,120.923569 5.399277,125.402161 
	C3.966149,122.421013 2.866680,119.285217 1.383606,116.074707 
	C1.000000,111.643097 1.000000,107.286201 1.000001,102.464645 
z"/>
<path fill="#205468" opacity="1.000000" stroke="none" 
	d="
M287.000000,170.541931 
	C286.847046,171.066040 286.573395,171.111618 286.558258,171.201004 
	C283.943176,186.645874 273.623840,196.853439 262.830322,206.969086 
	C246.180573,222.573105 229.913712,238.585602 213.477921,254.418076 
	C212.305618,255.547318 211.080048,256.621246 209.029663,258.498932 
	C209.029663,248.014648 209.029663,238.461426 209.025970,228.438019 
	C209.530945,226.944656 209.813950,225.693283 210.582657,224.933060 
	C219.778214,215.839508 229.044830,206.817749 238.295212,197.779617 
	C244.094971,192.112946 249.862442,186.412521 255.712173,180.797852 
	C260.372101,176.325211 265.554077,172.320358 269.742188,167.452194 
	C274.645416,161.752823 278.722687,155.342834 283.522217,149.496124 
	C284.924103,153.167419 285.962067,156.583710 287.000000,160.000000 
	C287.000000,163.361282 287.000000,166.722580 287.000000,170.541931 
z"/>
<path fill="#DEEFF4" opacity="1.000000" stroke="none" 
	d="
M287.000000,159.531342 
	C285.962067,156.583710 284.924103,153.167419 283.815369,149.343124 
	C286.201477,141.597458 285.867462,134.235901 283.998810,126.436768 
	C284.905334,127.811455 285.746674,129.610031 286.794006,131.704300 
	C287.000000,141.020889 287.000000,150.041794 287.000000,159.531342 
z"/>
<path fill="#FCFDFD" opacity="1.000000" stroke="none" 
	d="
M182.920471,87.793839 
	C183.146881,87.310181 183.373291,86.826530 184.004852,85.952515 
	C184.551239,85.200256 184.692459,84.838364 184.833679,84.476471 
	C188.511368,75.997185 192.189072,67.517899 196.185379,58.303989 
	C198.013245,59.844727 198.886902,60.498829 199.666580,61.250431 
	C217.901962,78.829033 236.157150,96.387253 254.344757,114.015167 
	C268.871979,128.095352 268.977997,147.228195 254.528625,161.214066 
	C225.912811,188.911942 197.246368,216.557739 168.536926,244.158569 
	C154.142670,257.996979 134.146469,257.884644 119.715332,243.990112 
	C91.146317,216.483322 62.590633,188.962631 34.063618,161.412308 
	C19.597071,147.441055 19.586872,128.224182 33.975849,114.194481 
	C40.111252,108.212273 46.294685,102.279327 53.057243,96.261566 
	C54.162498,96.551460 54.666801,96.903786 55.074615,97.596161 
	C54.090706,99.426819 52.897484,100.816185 52.365028,102.424324 
	C48.652985,113.635490 44.733891,124.684990 34.328209,132.263580 
	C36.390522,132.435211 38.228317,132.161133 39.960167,131.574356 
	C48.354080,128.730347 51.936543,121.705513 55.142948,114.226616 
	C57.801815,108.024849 60.855629,101.992401 64.083954,95.858231 
	C66.600784,96.559151 68.768135,97.286781 71.132645,98.259911 
	C71.569252,99.295052 71.808693,100.084679 72.073921,101.171234 
	C72.382843,101.982445 72.665977,102.496719 73.054642,103.119324 
	C73.160156,103.227654 73.128677,103.528458 73.193520,103.796860 
	C73.449226,104.377258 73.640083,104.689255 73.940239,105.196564 
	C74.049530,105.391876 74.064705,105.839249 74.078506,106.131645 
	C74.332672,106.949715 74.573036,107.475380 74.880402,108.229446 
	C74.947418,108.457832 75.025604,108.927399 75.118034,109.128296 
	C75.367577,109.581772 75.558548,109.805450 75.884552,110.261269 
	C76.230659,111.008179 76.475594,111.494049 76.437660,112.122620 
	C76.094627,114.083878 76.034454,115.902428 75.739220,117.914818 
	C74.666321,118.841454 73.828484,119.574242 72.696297,120.564484 
	C74.191399,120.842850 75.099411,121.011902 76.276123,121.352638 
	C77.165611,121.636436 77.786392,121.748558 78.574005,121.843872 
	C78.740829,121.827057 78.991707,122.049568 79.251900,122.243439 
	C80.136841,122.578033 80.761597,122.718773 81.555679,122.846016 
	C81.725021,122.832520 81.994377,123.039589 82.162590,123.382339 
	C84.085518,124.099594 85.840225,124.474106 87.831299,124.782089 
	C88.405823,124.722778 88.713493,124.823318 89.163490,125.174164 
	C89.891457,125.241150 90.446579,125.151161 91.322723,124.949493 
	C92.949371,124.476593 94.255020,124.115364 95.879021,123.906563 
	C99.139900,123.794327 102.082413,123.529655 105.323540,123.145401 
	C106.044250,122.956665 106.466354,122.887512 107.077240,122.988846 
	C107.845779,122.787903 108.425529,122.416481 109.267830,121.813385 
	C116.647949,118.219116 123.262215,114.338120 125.659882,105.918274 
	C128.060516,106.641388 130.523209,107.383202 133.145203,108.449646 
	C134.933899,109.155334 136.563293,109.536392 138.497559,109.910522 
	C139.192551,110.012299 139.582672,110.121010 140.134979,110.535278 
	C142.526230,110.993835 144.755341,111.146835 147.385391,111.250793 
	C148.861542,111.233902 149.936737,111.266052 151.197266,111.423378 
	C151.922195,111.426323 152.461807,111.304085 153.246704,111.085007 
	C153.647949,110.906944 153.803879,110.825722 153.959793,110.744507 
	C154.374191,110.730331 154.788589,110.716156 155.745026,110.921158 
	C157.128830,110.673500 157.970612,110.206680 158.812714,109.777756 
	C158.813034,109.815659 158.737991,109.804970 158.974243,109.761856 
	C159.517426,109.607193 159.782227,109.431953 160.198380,109.082123 
	C160.391861,108.971199 160.836990,108.942818 161.060547,108.869553 
	C161.568985,108.651245 161.808578,108.451797 162.002884,108.197937 
	C162.002884,108.197937 162.332458,107.948967 162.780792,107.834305 
	C163.490845,107.494621 163.752563,107.269592 164.014267,107.044571 
	C164.764404,106.403725 165.514526,105.762878 166.778046,104.913895 
	C167.518890,104.450012 167.746338,104.194275 167.973785,103.938545 
	C167.973785,103.938545 167.991379,103.996849 168.178162,103.863922 
	C168.633942,103.530289 168.842133,103.279167 168.989517,102.977615 
	C168.989517,102.977615 169.001831,103.002220 169.196991,102.869606 
	C169.652054,102.532303 169.851608,102.279892 169.990814,101.979752 
	C169.990814,101.979752 170.001907,102.001587 170.196915,101.866913 
	C170.649536,101.524155 170.847916,101.269867 170.987045,100.969368 
	C170.987045,100.969368 171.002762,101.001465 171.312164,100.902367 
	C172.753372,98.878799 173.885193,96.954330 175.016998,95.029861 
	C175.016998,95.029861 174.994492,95.007156 175.341461,94.991440 
	C176.467377,94.339249 177.246338,93.702766 178.025299,93.066284 
	C178.466629,92.441223 178.907974,91.816154 179.925232,91.001740 
	C181.005341,90.216942 181.509506,89.621490 182.013687,89.026047 
	C182.013687,89.026047 181.995880,89.000198 182.207397,88.839867 
	C182.586105,88.384300 182.753296,88.089066 182.920471,87.793839 
M177.853958,176.292831 
	C178.478073,175.351685 178.895096,174.101715 179.760986,173.521103 
	C184.304062,170.474640 189.331039,168.038895 193.486191,164.552307 
	C198.922897,159.990341 201.500992,153.928268 199.118988,146.668365 
	C196.869614,139.812744 191.237671,137.166168 184.824341,136.922638 
	C169.688324,136.347839 154.529556,136.351868 139.379135,136.223694 
	C138.400436,136.215424 136.989120,136.807159 136.506790,137.576187 
	C134.608521,140.602890 133.001358,143.812164 130.915527,147.632462 
	C133.591599,147.632462 135.377686,147.628418 137.163757,147.633102 
	C149.326492,147.664978 161.496597,147.452545 173.649368,147.817535 
	C181.872513,148.064514 185.244019,155.348709 180.087921,161.827682 
	C177.817627,164.680481 174.274704,166.680740 171.006210,168.532608 
	C167.902740,170.290939 164.403244,171.350266 160.786636,172.836670 
	C163.926285,180.423264 166.653336,187.739990 170.041672,194.736496 
	C170.999954,196.715210 173.781342,198.802933 175.916840,199.026932 
	C181.517975,199.614471 187.235397,199.416153 192.884293,199.114990 
	C196.816269,198.905365 199.684540,196.968246 200.089569,191.736526 
	C194.595734,191.736526 188.124725,193.638931 184.714188,191.222244 
	C181.016479,188.602127 180.169922,181.958313 177.853958,176.292831 
M92.371368,177.860382 
	C91.005905,182.304657 89.448799,186.701263 88.328094,191.206421 
	C87.172745,195.850815 89.364037,198.840271 94.033325,199.001251 
	C100.681015,199.230438 107.344513,199.303467 113.992485,199.122025 
	C118.858780,198.989212 122.310768,196.559586 124.208687,191.017654 
	C117.627541,191.017654 111.622803,191.017654 105.178604,191.017654 
	C107.990829,181.844070 110.597481,173.341080 113.227798,164.760880 
	C112.302780,164.479401 111.857529,164.251862 111.397789,164.217331 
	C96.771980,163.119492 96.771767,163.122330 92.371368,177.860382 
M137.822815,198.754822 
	C141.111526,198.921616 144.416702,198.938782 147.684204,199.298309 
	C150.798676,199.641022 151.996582,198.232498 152.745453,195.388428 
	C155.148193,186.263336 157.789886,177.201050 160.350647,168.117706 
	C161.682251,163.394348 163.037521,158.677658 164.506897,153.519882 
	C159.341263,153.519882 154.919479,153.519882 149.952972,153.519882 
	C145.878006,168.200928 141.765549,183.017044 137.822815,198.754822 
M119.641617,148.807327 
	C122.103416,142.325089 121.285912,137.535400 117.085037,133.828735 
	C113.360649,130.542496 107.560600,129.846680 103.159645,132.158142 
	C98.665222,134.518707 95.733749,139.657059 96.355850,144.467117 
	C97.003983,149.478455 99.664902,153.125076 104.497559,154.798599 
	C110.012733,156.708481 114.917709,154.814835 119.641617,148.807327 
z"/>
<path fill="#FBFDFD" opacity="1.000000" stroke="none" 
	d="
M96.366501,76.199234 
	C96.366501,76.199226 95.881050,76.240143 95.881050,76.240143 
	C95.881050,76.240143 95.411240,76.111267 95.046417,75.762428 
	C93.785439,75.284355 92.889282,75.155121 91.993118,75.025879 
	C91.542007,75.025261 91.090889,75.024635 90.211655,74.830154 
	C89.501694,74.502625 89.242279,74.539368 89.005287,74.746521 
	C87.275124,74.737724 85.544952,74.728928 83.200172,74.554703 
	C82.057732,74.526054 81.529900,74.662834 81.002075,74.799614 
	C80.564140,74.898064 80.126198,74.996513 79.315002,74.621506 
	C78.739220,73.275841 78.536682,72.403625 78.334145,71.531403 
	C78.334145,71.531403 78.354576,71.356743 78.774216,71.408875 
	C79.807617,70.670403 80.421387,69.879791 81.035156,69.089188 
	C81.554184,68.481499 82.073219,67.873802 83.061142,67.055954 
	C83.764641,66.676956 83.936897,66.458885 84.046814,66.191566 
	C85.701012,64.507835 87.355209,62.824104 89.560501,60.869156 
	C90.367287,60.295246 90.622971,59.992546 90.878662,59.689850 
	C92.661942,57.857964 94.445229,56.026077 96.901459,54.054962 
	C99.035767,52.256683 100.497108,50.597637 101.958450,48.938591 
	C101.958450,48.938591 101.988281,48.996170 102.171570,48.853287 
	C102.621323,48.498970 102.826187,48.238991 102.969429,47.930454 
	C102.969429,47.930454 102.989067,47.990643 103.172279,47.854622 
	C103.622269,47.513355 103.830917,47.260204 103.981430,46.959137 
	C103.981430,46.959137 103.998383,47.004471 104.189209,46.872833 
	C104.645325,46.542263 104.851265,46.294079 104.997856,45.996639 
	C104.997856,45.996639 105.000000,46.000000 105.203949,45.874451 
	C105.664886,45.546215 105.861755,45.296188 105.998505,44.998825 
	C105.998505,44.998825 106.000000,45.000000 106.204071,44.875347 
	C106.663925,44.549885 106.862923,44.303261 107.005142,44.010818 
	C107.194229,43.735607 107.383324,43.460392 108.013580,42.989334 
	C108.702904,42.607159 108.894112,42.374104 109.028366,42.094330 
	C110.223320,40.851204 111.418282,39.608074 113.256210,38.183792 
	C115.546120,36.216442 117.193062,34.430244 118.840004,32.644051 
	C132.583344,17.848961 153.726929,16.864952 168.069794,30.923288 
	C176.140427,38.833797 183.369705,47.602676 190.808640,55.798260 
	C188.121033,61.548565 184.661316,68.950905 180.682571,76.667770 
	C179.272125,76.982269 178.380707,76.982254 177.350754,76.669846 
	C177.137589,75.910416 177.062943,75.463379 177.134125,74.823067 
	C176.877304,74.086418 176.474670,73.543053 175.964157,72.864853 
	C175.856293,72.730026 175.850845,72.384735 175.793732,72.130096 
	C175.552826,71.581757 175.369034,71.288055 175.083237,70.787682 
	C174.981216,70.581017 174.956436,70.120743 174.895966,69.906769 
	C174.708588,69.417542 174.525253,69.187202 174.143646,68.727493 
	C173.625015,67.723640 173.248230,66.994064 172.728424,65.903259 
	C172.215118,64.859589 171.844833,64.177155 171.510162,63.477543 
	C171.545761,63.460361 171.592285,63.524292 171.846603,63.528152 
	C172.399841,63.383411 172.698761,63.234806 173.137970,62.975410 
	C173.278275,62.864616 173.635391,62.847153 174.027481,62.859898 
	C175.541626,61.783516 176.663666,60.694393 177.478760,59.438892 
	C175.779846,59.120766 174.387878,58.969017 172.766220,58.644230 
	C171.988403,58.328480 171.440262,58.185768 170.656494,58.032852 
	C170.420837,58.022648 170.006287,57.797478 169.805542,57.634113 
	C169.282578,57.354000 168.960373,57.237251 168.462173,57.118900 
	C168.286194,57.117298 168.011414,56.897358 167.799622,56.710701 
	C167.062302,56.346542 166.536804,56.169044 166.005951,55.996174 
	C166.000610,56.000801 166.004913,55.989059 165.729950,55.783134 
	C164.788956,55.438393 164.122910,55.299580 163.147659,55.184013 
	C162.228088,55.110207 161.617706,55.013153 160.897034,54.816845 
	C160.482773,54.595234 160.218124,54.656811 159.678925,54.992855 
	C158.933517,55.122536 158.501953,55.161674 157.885391,54.902390 
	C154.379456,51.285442 151.157364,51.942966 147.731003,54.890049 
	C147.308029,54.868317 147.145126,54.801899 146.691650,54.560719 
	C144.933624,54.916695 143.466202,55.447441 141.752563,56.210022 
	C139.095093,57.996323 136.683807,59.550793 134.029022,61.231339 
	C133.547501,61.631969 133.309448,61.906521 133.071869,62.128403 
	C133.072327,62.075733 133.177551,62.080524 132.951874,62.221107 
	C132.520340,62.646729 132.314453,62.931770 132.103394,63.152657 
	C132.098221,63.088501 132.226837,63.083019 131.989868,63.252968 
	C131.549408,63.749222 131.345917,64.075523 131.075333,64.651535 
	C130.653580,65.261658 130.298950,65.622078 129.754150,66.139130 
	C129.328049,66.535179 129.161713,66.815842 129.057068,67.103241 
	C129.049133,67.068733 129.119675,67.075020 128.793488,67.171097 
	C128.011612,68.221436 127.555939,69.175697 127.086609,70.096115 
	C127.072960,70.062256 127.145874,70.065903 126.870552,70.166817 
	C126.219414,71.264427 125.843597,72.261116 125.357193,73.284119 
	C125.246590,73.310425 125.455681,73.240082 125.165588,73.408112 
	C124.590660,74.390785 124.305832,75.205429 124.010498,76.010040 
	C124.000000,76.000000 124.021210,76.018852 123.686523,76.159599 
	C122.946716,77.636452 122.541588,78.972565 122.136101,80.502602 
	C122.135742,80.696526 121.904884,81.008179 121.714722,81.229393 
	C121.361885,81.999939 121.199211,82.549278 121.042953,83.335983 
	C121.049370,83.573349 120.850655,84.004700 120.764557,84.126221 
	C120.606377,84.575386 120.724731,84.813393 121.020569,84.977859 
	C121.007622,84.993942 121.039764,84.970276 120.928207,85.272461 
	C120.159370,86.072136 119.502083,86.569626 118.844803,87.067123 
	C118.844803,87.067131 118.388786,87.000565 118.122818,86.556267 
	C116.558655,85.761063 115.260468,85.410164 113.962273,85.059265 
	C113.962273,85.059265 113.485550,84.966957 113.177444,84.604630 
	C112.473885,83.863327 112.078430,83.484367 111.682968,83.105400 
	C111.682968,83.105400 111.284416,83.070320 110.965729,82.769684 
	C110.392532,82.265961 110.104195,82.140862 109.782021,82.093758 
	C107.029778,80.856956 104.277542,79.620163 101.032074,77.965065 
	C99.979172,77.385429 99.419495,77.224083 98.859825,77.062744 
	C98.859825,77.062744 98.394867,77.064629 97.945068,76.791672 
	C97.119019,76.412216 96.742760,76.305725 96.366501,76.199234 
z"/>
<path fill="#E8F8FA" opacity="1.000000" stroke="none" 
	d="
M119.045532,87.357742 
	C119.502083,86.569626 120.159370,86.072136 121.261612,85.379730 
	C124.964325,86.741577 128.222061,88.298325 131.889420,90.050812 
	C134.210999,75.778519 139.527893,63.654919 152.594559,55.299995 
	C150.421127,55.085350 149.206100,54.965355 147.991074,54.845360 
	C151.157364,51.942966 154.379456,51.285442 157.626740,55.128670 
	C155.674637,56.521866 153.796173,57.390350 152.464203,58.006180 
	C156.188828,59.274429 159.793823,60.623581 163.475357,61.714306 
	C166.088226,62.488419 168.804459,62.913731 171.474548,63.494724 
	C171.844833,64.177155 172.215118,64.859589 172.388031,65.961700 
	C171.161301,66.703636 170.131912,67.025887 168.952332,67.395164 
	C171.101761,72.429527 173.092712,77.092705 175.439087,82.588348 
	C176.361053,80.067276 176.925171,78.524757 177.489273,76.982231 
	C178.380707,76.982254 179.272125,76.982269 180.497910,76.982452 
	C179.587067,79.724350 178.341873,82.466095 176.793762,85.664825 
	C176.306686,86.409424 176.122513,86.697029 175.938354,86.984634 
	C175.587311,86.985527 175.314255,87.131889 174.786743,87.748596 
	C174.355362,88.387207 174.256393,88.700966 174.157440,89.014709 
	C173.957779,89.316437 173.758133,89.618164 173.184509,89.625031 
	C169.908142,82.322662 167.176208,75.236595 164.003632,68.353630 
	C163.000854,66.178070 160.819916,64.545547 159.178177,62.664501 
	C158.717911,63.003235 158.257645,63.341969 157.797394,63.680702 
	C161.709167,73.053055 165.611893,82.429245 169.580490,91.777473 
	C169.689194,92.033501 170.507004,91.988487 170.994141,92.083847 
	C170.583984,93.223419 170.173828,94.362991 169.568420,96.045006 
	C171.548721,95.662071 172.902206,95.400337 174.636353,95.084236 
	C173.885193,96.954330 172.753372,98.878799 171.296448,100.893967 
	C170.326218,100.539345 169.459015,99.563042 169.068481,99.726387 
	C159.319412,103.803978 149.873566,102.045616 140.709579,98.037315 
	C133.432648,94.854408 126.391884,91.131516 119.045532,87.357742 
M159.568222,94.005493 
	C160.807663,94.649918 162.047089,95.294350 163.286530,95.938774 
	C163.580536,95.474068 163.874542,95.009361 164.168549,94.544655 
	C159.931427,84.662247 155.764297,74.748276 151.346130,64.947479 
	C150.916260,63.993855 148.936371,63.738964 147.675980,63.159729 
	C147.419724,63.622639 147.163467,64.085548 146.907211,64.548462 
	C151.004684,74.141685 155.102158,83.734909 159.568222,94.005493 
M149.534531,84.937355 
	C147.292923,79.643997 145.051315,74.350639 142.809723,69.057274 
	C142.280762,69.217567 141.751801,69.377853 141.222839,69.538147 
	C139.909851,79.063499 146.845963,86.408035 149.406555,94.898079 
	C149.772293,96.110764 151.925339,96.784386 153.251190,97.707489 
	C153.595917,97.325287 153.940659,96.943085 154.285400,96.560883 
	C152.815720,92.914940 151.346039,89.268997 149.534531,84.937355 
M141.845367,90.584122 
	C140.490295,87.443436 139.135208,84.302750 137.584702,80.709122 
	C134.573135,88.292816 136.795959,93.348961 143.114578,94.122353 
	C142.745865,93.119278 142.409851,92.205162 141.845367,90.584122 
z"/>
<path fill="#ECF9FB" opacity="1.000000" stroke="none" 
	d="
M75.974289,117.720978 
	C76.034454,115.902428 76.094627,114.083878 76.560242,112.481308 
	C78.254723,112.939674 79.543755,113.182068 81.610611,113.570717 
	C78.534798,106.023521 76.051353,99.773682 73.405602,93.593323 
	C72.970253,92.576363 71.822350,91.864441 70.986916,90.718399 
	C70.306725,89.963654 69.643387,89.502045 68.681244,88.948662 
	C67.261589,88.845757 66.140717,88.834633 64.958282,88.558510 
	C64.625114,87.621498 64.353500,86.949478 64.081894,86.277466 
	C72.824356,83.852448 81.662506,83.875038 90.072960,87.025970 
	C97.313370,89.738525 104.123245,93.600273 111.649475,97.270782 
	C112.761871,97.800240 113.348267,98.012825 113.934669,98.225418 
	C113.934669,98.225410 113.913017,98.121696 114.037247,98.389053 
	C114.733612,98.875633 115.305756,99.094849 115.877899,99.314064 
	C115.877899,99.314064 115.849243,99.184853 115.885681,99.549042 
	C118.256500,101.364830 120.590881,102.816429 122.925262,104.268036 
	C120.840149,104.716187 119.264618,103.727951 117.649399,103.658157 
	C116.267685,103.598450 114.213226,104.173729 113.536797,105.188431 
	C109.610550,111.078140 106.003822,117.180847 102.456581,122.939545 
	C102.741837,122.975693 103.883385,123.120338 105.024933,123.264984 
	C102.082413,123.529655 99.139900,123.794327 96.100281,123.654816 
	C97.421310,122.251862 98.839439,121.253090 100.635231,119.988319 
	C97.410202,119.102074 94.707413,118.847336 92.508514,117.659660 
	C86.881828,114.620544 81.474846,114.617638 75.974289,117.720978 
M83.865273,102.643486 
	C84.888260,105.261337 85.647430,108.030106 87.027916,110.443466 
	C87.933174,112.026024 89.736755,113.094719 91.138016,114.393555 
	C91.464600,114.039886 91.791176,113.686218 92.117752,113.332550 
	C89.049652,105.664436 86.087067,97.950661 82.808327,90.373695 
	C82.269440,89.128342 80.341461,88.484070 79.055466,87.561996 
	C78.770370,87.907539 78.485275,88.253082 78.200180,88.598618 
	C79.989487,93.042305 81.778793,97.485992 83.865273,102.643486 
M95.148613,93.552513 
	C93.798645,92.690353 92.448677,91.828194 91.098701,90.966034 
	C90.892067,91.237762 90.685425,91.509491 90.478790,91.781219 
	C93.737633,99.898758 96.996483,108.016296 100.234016,116.080757 
	C104.151733,115.981964 103.463852,113.949234 102.553627,111.721077 
	C100.171989,105.890915 97.835548,100.042282 95.148613,93.552513 
M109.953102,105.519791 
	C108.285240,102.313019 108.440819,97.584953 102.491501,96.929024 
	C104.359665,101.600067 105.975143,105.639313 108.008003,110.722130 
	C109.006981,108.509476 109.511978,107.390930 109.953102,105.519791 
z"/>
<path fill="#25778F" opacity="1.000000" stroke="none" 
	d="
M105.323540,123.145401 
	C103.883385,123.120338 102.741837,122.975693 102.456581,122.939545 
	C106.003822,117.180847 109.610550,111.078140 113.536797,105.188431 
	C114.213226,104.173729 116.267685,103.598450 117.649399,103.658157 
	C119.264618,103.727951 120.840149,104.716187 122.925262,104.268036 
	C120.590881,102.816429 118.256500,101.364830 115.822159,99.567589 
	C122.030449,101.975342 128.338699,104.728729 134.431900,107.821739 
	C133.806549,108.149246 133.396225,108.137123 132.985916,108.125008 
	C130.523209,107.383202 128.060516,106.641388 125.659882,105.918274 
	C123.262215,114.338120 116.647949,118.219116 108.968704,121.799622 
	C107.900841,122.284470 107.394646,122.551414 106.888458,122.818359 
	C106.466354,122.887512 106.044250,122.956665 105.323540,123.145401 
z"/>
<path fill="#31798D" opacity="1.000000" stroke="none" 
	d="
M171.240631,91.927711 
	C170.507004,91.988487 169.689194,92.033501 169.580490,91.777473 
	C165.611893,82.429245 161.709167,73.053055 157.797394,63.680702 
	C158.257645,63.341969 158.717911,63.003235 159.178177,62.664501 
	C160.819916,64.545547 163.000854,66.178070 164.003632,68.353630 
	C167.176208,75.236595 169.908142,82.322662 172.913483,89.684113 
	C172.506699,90.615898 171.996902,91.193741 171.240631,91.927711 
z"/>
<path fill="#CDEDF2" opacity="1.000000" stroke="none" 
	d="
M63.757107,86.345917 
	C64.353500,86.949478 64.625114,87.621498 64.606125,88.632797 
	C61.267391,91.733421 58.219250,94.494766 55.171104,97.256111 
	C54.666801,96.903786 54.162498,96.551460 53.359211,96.107628 
	C56.517593,92.815536 59.974957,89.614952 63.757107,86.345917 
z"/>
<path fill="#25778F" opacity="1.000000" stroke="none" 
	d="
M139.972809,110.229721 
	C139.582672,110.121010 139.192551,110.012299 138.399811,109.703819 
	C137.997192,109.504051 137.797516,109.092621 137.797516,109.092621 
	C142.945236,109.529472 148.092972,109.966331 153.600250,110.573845 
	C153.803879,110.825722 153.647949,110.906944 152.913177,111.027435 
	C151.893555,111.143883 151.452744,111.221046 151.011932,111.298203 
	C149.936737,111.266052 148.861542,111.233902 146.998596,111.146912 
	C144.131500,110.804634 142.052155,110.517174 139.972809,110.229721 
z"/>
<path fill="#E8F8FA" opacity="1.000000" stroke="none" 
	d="
M78.067459,71.704391 
	C78.536682,72.403625 78.739220,73.275841 78.978500,74.595772 
	C77.261475,75.747528 75.507698,76.451576 73.753914,77.155624 
	C73.506805,76.833336 73.259697,76.511047 73.012589,76.188751 
	C74.608650,74.751633 76.204712,73.314507 78.067459,71.704391 
z"/>
<path fill="#E8F8FA" opacity="1.000000" stroke="none" 
	d="
M118.535553,32.782532 
	C117.193062,34.430244 115.546120,36.216442 113.545349,38.033627 
	C114.871384,36.350079 116.551239,34.635548 118.535553,32.782532 
z"/>
<path fill="#E8F8FA" opacity="1.000000" stroke="none" 
	d="
M101.651413,49.056679 
	C100.497108,50.597637 99.035767,52.256683 97.196136,53.920395 
	C98.326691,52.341633 99.835533,50.758198 101.651413,49.056679 
z"/>
<path fill="#E8F8FA" opacity="1.000000" stroke="none" 
	d="
M114.112762,85.364502 
	C115.260468,85.410164 116.558655,85.761063 117.940514,86.415329 
	C116.770538,86.369041 115.516899,86.019386 114.112762,85.364502 
z"/>
<path fill="#25778F" opacity="1.000000" stroke="none" 
	d="
M160.836990,108.942818 
	C160.836990,108.942818 160.391861,108.971199 159.940262,109.063095 
	C159.238449,109.371658 158.988220,109.588318 158.737991,109.804977 
	C158.737991,109.804970 158.813034,109.815659 158.459961,109.809570 
	C157.407059,109.876999 156.707245,109.950523 156.007431,110.024048 
	C157.454269,109.359383 158.901108,108.694725 160.661484,108.264099 
	C160.975021,108.498138 160.836990,108.942818 160.836990,108.942818 
z"/>
<path fill="#E8F8FA" opacity="1.000000" stroke="none" 
	d="
M137.583359,109.105865 
	C137.797516,109.092621 137.997192,109.504051 138.094940,109.710754 
	C136.563293,109.536392 134.933899,109.155334 133.145203,108.449646 
	C133.396225,108.137123 133.806549,108.149246 134.526611,108.161682 
	C134.836349,108.162003 134.865738,108.113754 135.039368,108.365364 
	C135.806564,108.715118 136.400116,108.813263 136.993683,108.911400 
	C136.993683,108.911400 137.369202,109.119110 137.583359,109.105865 
z"/>
<path fill="#E8F8FA" opacity="1.000000" stroke="none" 
	d="
M155.939606,110.186554 
	C156.707245,109.950523 157.407059,109.876999 158.459625,109.771667 
	C157.970612,110.206680 157.128830,110.673500 156.058197,110.919479 
	C155.829361,110.698639 155.871796,110.349045 155.939606,110.186554 
z"/>
<path fill="#E8F8FA" opacity="1.000000" stroke="none" 
	d="
M80.759438,69.172356 
	C80.421387,69.879791 79.807617,70.670403 78.861893,71.402283 
	C79.181190,70.647537 79.832451,69.951530 80.759438,69.172356 
z"/>
<path fill="#E8F8FA" opacity="1.000000" stroke="none" 
	d="
M177.713226,93.163437 
	C177.246338,93.702766 176.467377,94.339249 175.356079,94.994736 
	C175.816208,94.429352 176.608673,93.844963 177.713226,93.163437 
z"/>
<path fill="#E8F8FA" opacity="1.000000" stroke="none" 
	d="
M92.251038,75.217377 
	C92.889282,75.155121 93.785439,75.284355 94.835693,75.640244 
	C94.162849,75.714226 93.335907,75.561554 92.251038,75.217377 
z"/>
<path fill="#E8F8FA" opacity="1.000000" stroke="none" 
	d="
M181.699448,89.101616 
	C181.509506,89.621490 181.005341,90.216942 180.200027,90.887825 
	C180.394333,90.367897 180.889771,89.772537 181.699448,89.101616 
z"/>
<path fill="#25778F" opacity="1.000000" stroke="none" 
	d="
M113.729973,97.986954 
	C113.348267,98.012825 112.761871,97.800240 111.991661,97.331551 
	C112.380325,97.299789 112.952797,97.524139 113.729973,97.986954 
z"/>
<path fill="#25778F" opacity="1.000000" stroke="none" 
	d="
M115.690857,99.064697 
	C115.305756,99.094849 114.733612,98.875633 113.986023,98.402565 
	C114.374992,98.370918 114.939400,98.593124 115.690857,99.064697 
z"/>
<path fill="#25778F" opacity="1.000000" stroke="none" 
	d="
M136.757614,108.733223 
	C136.400116,108.813263 135.806564,108.715118 135.017365,108.379868 
	C135.388336,108.280182 135.954941,108.417610 136.757614,108.733223 
z"/>
<path fill="#E8F8FA" opacity="1.000000" stroke="none" 
	d="
M111.774460,83.393494 
	C112.078430,83.484367 112.473885,83.863327 112.952271,84.513840 
	C112.645447,84.417458 112.255699,84.049515 111.774460,83.393494 
z"/>
<path fill="#E8F8FA" opacity="1.000000" stroke="none" 
	d="
M99.054489,77.295746 
	C99.419495,77.224083 99.979172,77.385429 100.760681,77.743599 
	C100.404732,77.803200 99.826942,77.665977 99.054489,77.295746 
z"/>
<path fill="#E8F8FA" opacity="1.000000" stroke="none" 
	d="
M81.331421,74.856842 
	C81.529900,74.662834 82.057732,74.526054 82.769463,74.510353 
	C82.522499,74.725639 82.091629,74.819862 81.331421,74.856842 
z"/>
<path fill="#E8F8FA" opacity="1.000000" stroke="none" 
	d="
M109.913589,82.310043 
	C110.104195,82.140862 110.392532,82.265961 110.816490,82.636475 
	C110.672348,82.711365 110.358757,82.618843 109.913589,82.310043 
z"/>
<path fill="#E8F8FA" opacity="1.000000" stroke="none" 
	d="
M83.825287,66.238861 
	C83.936897,66.458885 83.764641,66.676956 83.342575,66.941757 
	C83.170525,66.707138 83.320068,66.456612 83.825287,66.238861 
z"/>
<path fill="#E8F8FA" opacity="1.000000" stroke="none" 
	d="
M96.571083,76.434509 
	C96.742760,76.305725 97.119019,76.412216 97.739365,76.683372 
	C97.580849,76.788612 97.178261,76.729202 96.571083,76.434509 
z"/>
<path fill="#E8F8FA" opacity="1.000000" stroke="none" 
	d="
M89.244545,74.835983 
	C89.242279,74.539368 89.501694,74.502625 89.885017,74.735352 
	C89.818939,74.864754 89.651367,74.895103 89.244545,74.835983 
z"/>
<path fill="#E8F8FA" opacity="1.000000" stroke="none" 
	d="
M102.715347,48.008957 
	C102.826187,48.238991 102.621323,48.498970 102.141556,48.841019 
	C102.105927,48.676910 102.283600,48.382183 102.715347,48.008957 
z"/>
<path fill="#E8F8FA" opacity="1.000000" stroke="none" 
	d="
M103.724106,47.025398 
	C103.830917,47.260204 103.622269,47.513355 103.142189,47.844791 
	C103.108185,47.677876 103.287483,47.384766 103.724106,47.025398 
z"/>
<path fill="#E8F8FA" opacity="1.000000" stroke="none" 
	d="
M104.747742,46.064060 
	C104.851265,46.294079 104.645325,46.542263 104.167946,46.861244 
	C104.136444,46.698025 104.317039,46.414753 104.747742,46.064060 
z"/>
<path fill="#E8F8FA" opacity="1.000000" stroke="none" 
	d="
M105.752876,45.071983 
	C105.861755,45.296188 105.664886,45.546215 105.202217,45.873383 
	C105.166771,45.713623 105.337006,45.429382 105.752876,45.071983 
z"/>
<path fill="#E8F8FA" opacity="1.000000" stroke="none" 
	d="
M90.593674,59.803085 
	C90.622971,59.992546 90.367287,60.295246 89.844810,60.735641 
	C89.821571,60.554333 90.065125,60.235325 90.593674,59.803085 
z"/>
<path fill="#E8F8FA" opacity="1.000000" stroke="none" 
	d="
M182.680908,87.918457 
	C182.753296,88.089066 182.586105,88.384300 182.222229,88.844391 
	C182.164139,88.687195 182.302734,88.365143 182.680908,87.918457 
z"/>
<path fill="#31798D" opacity="1.000000" stroke="none" 
	d="
M174.315277,88.842590 
	C174.256393,88.700966 174.355362,88.387207 174.704117,87.974411 
	C174.845428,88.171715 174.685165,88.436745 174.315277,88.842590 
z"/>
<path fill="#E8F8FA" opacity="1.000000" stroke="none" 
	d="
M170.737167,101.044197 
	C170.847916,101.269867 170.649536,101.524155 170.185760,101.861931 
	C170.148849,101.700760 170.318069,101.409897 170.737167,101.044197 
z"/>
<path fill="#E8F8FA" opacity="1.000000" stroke="none" 
	d="
M169.743591,102.056023 
	C169.851608,102.279892 169.652054,102.532303 169.184570,102.863541 
	C169.150146,102.704163 169.323257,102.418228 169.743591,102.056023 
z"/>
<path fill="#E8F8FA" opacity="1.000000" stroke="none" 
	d="
M168.739548,103.051575 
	C168.842133,103.279167 168.633942,103.530289 168.150116,103.852043 
	C168.120071,103.690582 168.304825,103.408058 168.739548,103.051575 
z"/>
<path fill="#E8F8FA" opacity="1.000000" stroke="none" 
	d="
M108.790756,42.151787 
	C108.894112,42.374104 108.702904,42.607159 108.256317,42.905380 
	C108.086029,42.664001 108.251114,42.394657 108.790756,42.151787 
z"/>
<path fill="#E8F8FA" opacity="1.000000" stroke="none" 
	d="
M167.712402,104.010406 
	C167.746338,104.194275 167.518890,104.450012 167.061462,104.823700 
	C167.037979,104.655197 167.244492,104.368736 167.712402,104.010406 
z"/>
<path fill="#E8F8FA" opacity="1.000000" stroke="none" 
	d="
M163.734558,107.064957 
	C163.752563,107.269592 163.490845,107.494621 162.986237,107.813171 
	C162.980499,107.632912 163.217667,107.359131 163.734558,107.064957 
z"/>
<path fill="#31798D" opacity="1.000000" stroke="none" 
	d="
M176.153793,86.847443 
	C176.122513,86.697029 176.306686,86.409424 176.718506,86.000702 
	C176.753830,86.156487 176.561539,86.433372 176.153793,86.847443 
z"/>
<path fill="#E8F8FA" opacity="1.000000" stroke="none" 
	d="
M106.756775,44.078384 
	C106.862923,44.303261 106.663925,44.549885 106.203476,44.874588 
	C106.168678,44.714302 106.338547,44.430126 106.756775,44.078384 
z"/>
<path fill="#E8F8FA" opacity="1.000000" stroke="none" 
	d="
M184.587708,84.660614 
	C184.692459,84.838364 184.551239,85.200256 184.220520,85.785751 
	C184.134583,85.621155 184.238159,85.232964 184.587708,84.660614 
z"/>
<path fill="#E8F8FA" opacity="1.000000" stroke="none" 
	d="
M161.060547,108.869553 
	C160.836990,108.942818 160.975021,108.498138 161.052429,108.278625 
	C161.129837,108.059105 161.571045,108.098236 161.786957,108.148087 
	C161.808578,108.451797 161.568985,108.651245 161.060547,108.869553 
z"/>
<path fill="#5E5B73" opacity="1.000000" stroke="none" 
	d="
M177.966980,176.681015 
	C180.169922,181.958313 181.016479,188.602127 184.714188,191.222244 
	C188.124725,193.638931 194.595734,191.736526 200.089569,191.736526 
	C199.684540,196.968246 196.816269,198.905365 192.884293,199.114990 
	C187.235397,199.416153 181.517975,199.614471 175.916840,199.026932 
	C173.781342,198.802933 170.999954,196.715210 170.041672,194.736496 
	C166.653336,187.739990 163.926285,180.423264 160.786636,172.836670 
	C164.403244,171.350266 167.902740,170.290939 171.006210,168.532608 
	C174.274704,166.680740 177.817627,164.680481 180.087921,161.827682 
	C185.244019,155.348709 181.872513,148.064514 173.649368,147.817535 
	C161.496597,147.452545 149.326492,147.664978 137.163757,147.633102 
	C135.377686,147.628418 133.591599,147.632462 130.915527,147.632462 
	C133.001358,143.812164 134.608521,140.602890 136.506790,137.576187 
	C136.989120,136.807159 138.400436,136.215424 139.379135,136.223694 
	C154.529556,136.351868 169.688324,136.347839 184.824341,136.922638 
	C191.237671,137.166168 196.869614,139.812744 199.118988,146.668365 
	C201.500992,153.928268 198.922897,159.990341 193.486191,164.552307 
	C189.331039,168.038895 184.304062,170.474640 179.760986,173.521103 
	C178.895096,174.101715 178.478073,175.351685 177.966980,176.681015 
z"/>
<path fill="#5C5972" opacity="1.000000" stroke="none" 
	d="
M92.528534,177.492279 
	C96.771767,163.122330 96.771980,163.119492 111.397789,164.217331 
	C111.857529,164.251862 112.302780,164.479401 113.227798,164.760880 
	C110.597481,173.341080 107.990829,181.844070 105.178604,191.017654 
	C111.622803,191.017654 117.627541,191.017654 124.208687,191.017654 
	C122.310768,196.559586 118.858780,198.989212 113.992485,199.122025 
	C107.344513,199.303467 100.681015,199.230438 94.033325,199.001251 
	C89.364037,198.840271 87.172745,195.850815 88.328094,191.206421 
	C89.448799,186.701263 91.005905,182.304657 92.528534,177.492279 
z"/>
<path fill="#5C5972" opacity="1.000000" stroke="none" 
	d="
M137.737946,198.293976 
	C141.765549,183.017044 145.878006,168.200928 149.952972,153.519882 
	C154.919479,153.519882 159.341263,153.519882 164.506897,153.519882 
	C163.037521,158.677658 161.682251,163.394348 160.350647,168.117706 
	C157.789886,177.201050 155.148193,186.263336 152.745453,195.388428 
	C151.996582,198.232498 150.798676,199.641022 147.684204,199.298309 
	C144.416702,198.938782 141.111526,198.921616 137.737946,198.293976 
z"/>
<path fill="#5B5871" opacity="1.000000" stroke="none" 
	d="
M119.421646,149.124207 
	C114.917709,154.814835 110.012733,156.708481 104.497559,154.798599 
	C99.664902,153.125076 97.003983,149.478455 96.355850,144.467117 
	C95.733749,139.657059 98.665222,134.518707 103.159645,132.158142 
	C107.560600,129.846680 113.360649,130.542496 117.085037,133.828735 
	C121.285912,137.535400 122.103416,142.325089 119.421646,149.124207 
z"/>
<path fill="#26778E" opacity="1.000000" stroke="none" 
	d="
M55.074615,97.596161 
	C58.219250,94.494766 61.267391,91.733421 64.667694,88.897797 
	C66.140717,88.834633 67.261589,88.845757 68.594238,89.275787 
	C67.115509,91.758102 65.424988,93.821526 63.734470,95.884941 
	C60.855629,101.992401 57.801815,108.024849 55.142948,114.226616 
	C51.936543,121.705513 48.354080,128.730347 39.960167,131.574356 
	C38.228317,132.161133 36.390522,132.435211 34.328209,132.263580 
	C44.733891,124.684990 48.652985,113.635490 52.365028,102.424324 
	C52.897484,100.816185 54.090706,99.426819 55.074615,97.596161 
z"/>
<path fill="#2E7C93" opacity="1.000000" stroke="none" 
	d="
M75.739220,117.914818 
	C81.474846,114.617638 86.881828,114.620544 92.508514,117.659660 
	C94.707413,118.847336 97.410202,119.102074 100.635231,119.988319 
	C98.839439,121.253090 97.421310,122.251862 95.781921,123.502380 
	C94.255020,124.115364 92.949371,124.476593 90.992905,124.858444 
	C89.891602,124.925102 89.441132,124.971146 88.990654,125.017181 
	C88.713493,124.823318 88.405823,124.722778 87.539841,124.533905 
	C85.339478,123.914696 83.666924,123.477142 81.994377,123.039589 
	C81.994377,123.039589 81.725021,122.832520 81.335129,122.593666 
	C80.294060,122.253059 79.642883,122.151314 78.991707,122.049568 
	C78.991707,122.049568 78.740829,121.827057 78.333282,121.620239 
	C77.286301,121.335938 76.646866,121.258453 76.007431,121.180969 
	C75.099411,121.011902 74.191399,120.842850 72.696297,120.564484 
	C73.828484,119.574242 74.666321,118.841454 75.739220,117.914818 
z"/>
<path fill="#30778B" opacity="1.000000" stroke="none" 
	d="
M71.003761,91.011543 
	C71.822350,91.864441 72.970253,92.576363 73.405602,93.593323 
	C76.051353,99.773682 78.534798,106.023521 81.610611,113.570717 
	C79.543755,113.182068 78.254723,112.939674 76.843109,112.338608 
	C76.475594,111.494049 76.230659,111.008179 75.908127,110.009338 
	C75.562233,109.306717 75.293922,109.117058 75.025604,108.927399 
	C75.025604,108.927399 74.947418,108.457832 74.931793,107.925171 
	C74.632355,106.874748 74.348534,106.357002 74.064705,105.839249 
	C74.064705,105.839249 74.049530,105.391876 73.945564,104.903397 
	C73.603958,104.119423 73.366318,103.823944 73.128677,103.528458 
	C73.128677,103.528458 73.160156,103.227654 73.062332,102.812698 
	C72.659042,101.889931 72.353592,101.382118 72.048134,100.874313 
	C71.808693,100.084679 71.569252,99.295052 71.120209,97.876770 
	C70.941658,95.169266 70.972710,93.090408 71.003761,91.011543 
z"/>
<path fill="#EBF9FA" opacity="1.000000" stroke="none" 
	d="
M70.986916,90.718399 
	C70.972710,93.090408 70.941658,95.169266 70.923050,97.631271 
	C68.768135,97.286781 66.600784,96.559151 64.083954,95.858231 
	C65.424988,93.821526 67.115509,91.758102 68.893036,89.367569 
	C69.643387,89.502045 70.306725,89.963654 70.986916,90.718399 
z"/>
<path fill="#E8F8FA" opacity="1.000000" stroke="none" 
	d="
M140.134979,110.535278 
	C142.052155,110.517174 144.131500,110.804634 146.597641,111.195961 
	C144.755341,111.146835 142.526230,110.993835 140.134979,110.535278 
z"/>
<path fill="#ECF9FB" opacity="1.000000" stroke="none" 
	d="
M82.162590,123.382339 
	C83.666924,123.477142 85.339478,123.914696 87.303482,124.600433 
	C85.840225,124.474106 84.085518,124.099594 82.162590,123.382339 
z"/>
<path fill="#ECF9FB" opacity="1.000000" stroke="none" 
	d="
M107.077240,122.988846 
	C107.394646,122.551414 107.900841,122.284470 108.706161,122.031296 
	C108.425529,122.416481 107.845779,122.787903 107.077240,122.988846 
z"/>
<path fill="#EBF9FA" opacity="1.000000" stroke="none" 
	d="
M74.078506,106.131645 
	C74.348534,106.357002 74.632355,106.874748 74.864784,107.696777 
	C74.573036,107.475380 74.332672,106.949715 74.078506,106.131645 
z"/>
<path fill="#ECF9FB" opacity="1.000000" stroke="none" 
	d="
M89.163490,125.174164 
	C89.441132,124.971146 89.891602,124.925102 90.671890,124.970123 
	C90.446579,125.151161 89.891457,125.241150 89.163490,125.174164 
z"/>
<path fill="#EBF9FA" opacity="1.000000" stroke="none" 
	d="
M72.073921,101.171234 
	C72.353592,101.382118 72.659042,101.889931 72.956810,102.704361 
	C72.665977,102.496719 72.382843,101.982445 72.073921,101.171234 
z"/>
<path fill="#ECF9FB" opacity="1.000000" stroke="none" 
	d="
M79.251900,122.243439 
	C79.642883,122.151314 80.294060,122.253059 81.165787,122.607162 
	C80.761597,122.718773 80.136841,122.578033 79.251900,122.243439 
z"/>
<path fill="#ECF9FB" opacity="1.000000" stroke="none" 
	d="
M76.276123,121.352646 
	C76.646866,121.258453 77.286301,121.335938 78.166458,121.637054 
	C77.786392,121.748558 77.165611,121.636436 76.276123,121.352646 
z"/>
<path fill="#E8F8FA" opacity="1.000000" stroke="none" 
	d="
M151.197266,111.423386 
	C151.452744,111.221046 151.893555,111.143883 152.667892,111.124283 
	C152.461807,111.304085 151.922195,111.426323 151.197266,111.423386 
z"/>
<path fill="#E8F8FA" opacity="1.000000" stroke="none" 
	d="
M158.974243,109.761864 
	C158.988220,109.588318 159.238449,109.371658 159.746780,109.174019 
	C159.782227,109.431953 159.517426,109.607193 158.974243,109.761864 
z"/>
<path fill="#EBF9FA" opacity="1.000000" stroke="none" 
	d="
M73.193520,103.796860 
	C73.366318,103.823944 73.603958,104.119423 73.836273,104.708076 
	C73.640083,104.689255 73.449226,104.377258 73.193520,103.796860 
z"/>
<path fill="#ECF9FB" opacity="1.000000" stroke="none" 
	d="
M75.118034,109.128296 
	C75.293922,109.117058 75.562233,109.306717 75.806961,109.748306 
	C75.558548,109.805450 75.367577,109.581772 75.118034,109.128296 
z"/>
<path fill="#1E758D" opacity="1.000000" stroke="none" 
	d="
M147.731003,54.890049 
	C149.206100,54.965355 150.421127,55.085350 152.594559,55.299995 
	C139.527893,63.654919 134.210999,75.778519 131.889420,90.050812 
	C128.222061,88.298325 124.964325,86.741577 121.373169,85.077553 
	C121.039764,84.970276 121.007622,84.993942 120.990265,84.735779 
	C120.972916,84.477615 120.850655,84.004700 120.850655,84.004700 
	C120.850655,84.004700 121.049370,83.573349 121.274689,83.145218 
	C121.634964,82.147446 121.769928,81.577812 121.904892,81.008179 
	C121.904884,81.008179 122.135742,80.696526 122.392105,80.274597 
	C123.106056,78.574730 123.563629,77.296791 124.021210,76.018852 
	C124.021210,76.018852 124.000000,76.000000 124.260254,75.809921 
	C124.832230,74.826591 125.143959,74.033340 125.455681,73.240082 
	C125.455681,73.240082 125.246590,73.310425 125.574905,73.069572 
	C126.317436,71.907776 126.731651,70.986839 127.145874,70.065903 
	C127.145874,70.065903 127.072960,70.062256 127.356583,69.935211 
	C128.133362,68.897125 128.626526,67.986069 129.119675,67.075020 
	C129.119675,67.075020 129.049133,67.068733 129.296570,66.994698 
	C129.677460,66.607941 129.810883,66.295219 129.944321,65.982498 
	C130.298950,65.622078 130.653580,65.261658 131.339569,64.510941 
	C131.856232,63.774761 132.041534,63.428890 132.226837,63.083019 
	C132.226837,63.083019 132.098221,63.088501 132.366943,63.058365 
	C132.816284,62.712326 132.996918,62.396423 133.177551,62.080521 
	C133.177551,62.080524 133.072327,62.075733 133.345139,62.041992 
	C133.836136,61.707253 134.054321,61.406254 134.272507,61.105263 
	C136.683807,59.550793 139.095093,57.996323 142.124130,56.191902 
	C144.155334,55.539795 145.568771,55.137638 146.982224,54.735481 
	C147.145126,54.801899 147.308029,54.868317 147.731003,54.890049 
z"/>
<path fill="#2F7A8E" opacity="1.000000" stroke="none" 
	d="
M171.510162,63.477543 
	C168.804459,62.913731 166.088226,62.488419 163.475357,61.714306 
	C159.793823,60.623581 156.188828,59.274429 152.464203,58.006180 
	C153.796173,57.390350 155.674637,56.521866 157.811737,55.427097 
	C158.501953,55.161674 158.933517,55.122536 159.931732,55.062668 
	C160.667999,54.999992 160.837662,54.958046 161.007339,54.916100 
	C161.617706,55.013153 162.228088,55.110207 163.400909,55.427422 
	C164.643890,55.761406 165.324402,55.875233 166.004913,55.989059 
	C166.004913,55.989059 166.000610,56.000801 166.185455,56.225471 
	C166.917328,56.599213 167.464371,56.748287 168.011414,56.897362 
	C168.011414,56.897358 168.286194,57.117298 168.620514,57.346466 
	C169.305328,57.649582 169.655807,57.723530 170.006287,57.797478 
	C170.006287,57.797478 170.420837,58.022648 170.848206,58.262817 
	C171.849030,58.607746 172.422470,58.712509 172.995911,58.817272 
	C174.387878,58.969017 175.779846,59.120766 177.174774,59.566189 
	C175.996948,60.855629 174.816177,61.851395 173.635391,62.847157 
	C173.635391,62.847153 173.278275,62.864616 172.880722,62.956192 
	C172.186203,63.206608 171.889252,63.365452 171.592285,63.524292 
	C171.592285,63.524292 171.545761,63.460361 171.510162,63.477543 
z"/>
<path fill="#33798D" opacity="1.000000" stroke="none" 
	d="
M177.350754,76.669846 
	C176.925171,78.524757 176.361053,80.067276 175.439087,82.588348 
	C173.092712,77.092705 171.101761,72.429527 168.952332,67.395164 
	C170.131912,67.025887 171.161301,66.703636 172.531067,66.322937 
	C173.248230,66.994064 173.625015,67.723640 174.141327,68.967209 
	C174.401566,69.804764 174.626755,70.017944 174.956436,70.120743 
	C174.956436,70.120743 174.981216,70.581017 175.069366,71.067200 
	C175.388626,71.830498 175.619736,72.107613 175.850845,72.384735 
	C175.850845,72.384735 175.856293,72.730026 175.957184,73.156250 
	C176.368134,74.060425 176.678207,74.538383 176.988281,75.016342 
	C177.062943,75.463379 177.137589,75.910416 177.350754,76.669846 
z"/>
<path fill="#E8F8FA" opacity="1.000000" stroke="none" 
	d="
M174.027481,62.859901 
	C174.816177,61.851395 175.996948,60.855629 177.481720,59.732567 
	C176.663666,60.694393 175.541626,61.783516 174.027481,62.859901 
z"/>
<path fill="#E8F8FA" opacity="1.000000" stroke="none" 
	d="
M146.691650,54.560715 
	C145.568771,55.137638 144.155334,55.539795 142.370331,55.960068 
	C143.466202,55.447441 144.933624,54.916695 146.691650,54.560715 
z"/>
<path fill="#E8F8FA" opacity="1.000000" stroke="none" 
	d="
M123.686523,76.159599 
	C123.563629,77.296791 123.106056,78.574730 122.392471,80.080673 
	C122.541588,78.972565 122.946716,77.636452 123.686523,76.159599 
z"/>
<path fill="#E8F8FA" opacity="1.000000" stroke="none" 
	d="
M128.793488,67.171097 
	C128.626526,67.986069 128.133362,68.897125 127.370239,69.969070 
	C127.555939,69.175697 128.011612,68.221436 128.793488,67.171097 
z"/>
<path fill="#E8F8FA" opacity="1.000000" stroke="none" 
	d="
M126.870544,70.166817 
	C126.731651,70.986839 126.317436,71.907776 125.685501,73.043266 
	C125.843597,72.261116 126.219414,71.264427 126.870544,70.166817 
z"/>
<path fill="#E8F8FA" opacity="1.000000" stroke="none" 
	d="
M177.134125,74.823067 
	C176.678207,74.538383 176.368134,74.060425 176.065033,73.291077 
	C176.474670,73.543053 176.877304,74.086418 177.134125,74.823067 
z"/>
<path fill="#E8F8FA" opacity="1.000000" stroke="none" 
	d="
M125.165588,73.408112 
	C125.143959,74.033340 124.832230,74.826591 124.270752,75.819962 
	C124.305832,75.205429 124.590660,74.390785 125.165588,73.408112 
z"/>
<path fill="#E8F8FA" opacity="1.000000" stroke="none" 
	d="
M172.766220,58.644230 
	C172.422470,58.712509 171.849030,58.607746 171.083862,58.273022 
	C171.440262,58.185768 171.988403,58.328480 172.766220,58.644230 
z"/>
<path fill="#E8F8FA" opacity="1.000000" stroke="none" 
	d="
M167.799622,56.710701 
	C167.464371,56.748287 166.917328,56.599213 166.190796,56.220844 
	C166.536804,56.169044 167.062302,56.346542 167.799622,56.710701 
z"/>
<path fill="#E8F8FA" opacity="1.000000" stroke="none" 
	d="
M165.729950,55.783134 
	C165.324402,55.875233 164.643890,55.761406 163.710114,55.404175 
	C164.122910,55.299580 164.788956,55.438393 165.729950,55.783134 
z"/>
<path fill="#E8F8FA" opacity="1.000000" stroke="none" 
	d="
M121.714722,81.229393 
	C121.769928,81.577812 121.634964,82.147446 121.268265,82.907845 
	C121.199211,82.549278 121.361885,81.999939 121.714722,81.229393 
z"/>
<path fill="#E8F8FA" opacity="1.000000" stroke="none" 
	d="
M171.846603,63.528152 
	C171.889252,63.365452 172.186203,63.206608 172.740417,63.066986 
	C172.698761,63.234806 172.399841,63.383411 171.846603,63.528152 
z"/>
<path fill="#E8F8FA" opacity="1.000000" stroke="none" 
	d="
M120.764557,84.126221 
	C120.850655,84.004700 120.972916,84.477615 121.003220,84.719696 
	C120.724731,84.813393 120.606377,84.575386 120.764557,84.126221 
z"/>
<path fill="#E8F8FA" opacity="1.000000" stroke="none" 
	d="
M175.793732,72.130096 
	C175.619736,72.107613 175.388626,71.830498 175.171387,71.273865 
	C175.369034,71.288055 175.552826,71.581757 175.793732,72.130096 
z"/>
<path fill="#E8F8FA" opacity="1.000000" stroke="none" 
	d="
M160.897034,54.816845 
	C160.837662,54.958046 160.667999,54.999992 160.245560,54.972130 
	C160.218124,54.656811 160.482773,54.595234 160.897034,54.816845 
z"/>
<path fill="#E8F8FA" opacity="1.000000" stroke="none" 
	d="
M174.895966,69.906769 
	C174.626755,70.017944 174.401566,69.804764 174.283173,69.241486 
	C174.525253,69.187202 174.708588,69.417542 174.895966,69.906769 
z"/>
<path fill="#E8F8FA" opacity="1.000000" stroke="none" 
	d="
M129.754150,66.139130 
	C129.810883,66.295219 129.677460,66.607941 129.304504,67.029205 
	C129.161713,66.815842 129.328049,66.535179 129.754150,66.139130 
z"/>
<path fill="#E8F8FA" opacity="1.000000" stroke="none" 
	d="
M169.805542,57.634113 
	C169.655807,57.723530 169.305328,57.649582 168.796509,57.348068 
	C168.960373,57.237251 169.282578,57.354000 169.805542,57.634113 
z"/>
<path fill="#E8F8FA" opacity="1.000000" stroke="none" 
	d="
M134.029022,61.231339 
	C134.054321,61.406254 133.836136,61.707253 133.344666,62.094662 
	C133.309448,61.906521 133.547501,61.631969 134.029022,61.231339 
z"/>
<path fill="#E8F8FA" opacity="1.000000" stroke="none" 
	d="
M132.951874,62.221107 
	C132.996918,62.396423 132.816284,62.712326 132.372101,63.122520 
	C132.314453,62.931770 132.520340,62.646729 132.951874,62.221107 
z"/>
<path fill="#E8F8FA" opacity="1.000000" stroke="none" 
	d="
M131.989868,63.252968 
	C132.041534,63.428890 131.856232,63.774761 131.406677,64.261230 
	C131.345917,64.075523 131.549408,63.749222 131.989868,63.252968 
z"/>
<path fill="#2D778C" opacity="1.000000" stroke="none" 
	d="
M159.383926,93.666809 
	C155.102158,83.734909 151.004684,74.141685 146.907211,64.548462 
	C147.163467,64.085548 147.419724,63.622639 147.675980,63.159729 
	C148.936371,63.738964 150.916260,63.993855 151.346130,64.947479 
	C155.764297,74.748276 159.931427,84.662247 164.168549,94.544655 
	C163.874542,95.009361 163.580536,95.474068 163.286530,95.938774 
	C162.047089,95.294350 160.807663,94.649918 159.383926,93.666809 
z"/>
<path fill="#317B8E" opacity="1.000000" stroke="none" 
	d="
M149.705444,85.280212 
	C151.346039,89.268997 152.815720,92.914940 154.285400,96.560883 
	C153.940659,96.943085 153.595917,97.325287 153.251190,97.707489 
	C151.925339,96.784386 149.772293,96.110764 149.406555,94.898079 
	C146.845963,86.408035 139.909851,79.063499 141.222839,69.538147 
	C141.751801,69.377853 142.280762,69.217567 142.809723,69.057274 
	C145.051315,74.350639 147.292923,79.643997 149.705444,85.280212 
z"/>
<path fill="#3B7C8F" opacity="1.000000" stroke="none" 
	d="
M141.959595,90.937592 
	C142.409851,92.205162 142.745865,93.119278 143.114578,94.122353 
	C136.795959,93.348961 134.573135,88.292816 137.584702,80.709122 
	C139.135208,84.302750 140.490295,87.443436 141.959595,90.937592 
z"/>
<path fill="#2E768C" opacity="1.000000" stroke="none" 
	d="
M83.716690,102.286583 
	C81.778793,97.485992 79.989487,93.042305 78.200180,88.598618 
	C78.485275,88.253082 78.770370,87.907539 79.055466,87.561996 
	C80.341461,88.484070 82.269440,89.128342 82.808327,90.373695 
	C86.087067,97.950661 89.049652,105.664436 92.117752,113.332550 
	C91.791176,113.686218 91.464600,114.039886 91.138016,114.393555 
	C89.736755,113.094719 87.933174,112.026024 87.027916,110.443466 
	C85.647430,108.030106 84.888260,105.261337 83.716690,102.286583 
z"/>
<path fill="#32798D" opacity="1.000000" stroke="none" 
	d="
M95.314850,93.876770 
	C97.835548,100.042282 100.171989,105.890915 102.553627,111.721077 
	C103.463852,113.949234 104.151733,115.981964 100.234016,116.080757 
	C96.996483,108.016296 93.737633,99.898758 90.478790,91.781219 
	C90.685425,91.509491 90.892067,91.237762 91.098701,90.966034 
	C92.448677,91.828194 93.798645,92.690353 95.314850,93.876770 
z"/>
<path fill="#387C8D" opacity="1.000000" stroke="none" 
	d="
M109.985039,105.896088 
	C109.511978,107.390930 109.006981,108.509476 108.008003,110.722130 
	C105.975143,105.639313 104.359665,101.600067 102.491501,96.929024 
	C108.440819,97.584953 108.285240,102.313019 109.985039,105.896088 
z"/>
</svg>